<?xml version="1.0" encoding="UTF-8" standalone="no"?>
<svg
   xmlns:dc="http://purl.org/dc/elements/1.1/"
   xmlns:cc="http://creativecommons.org/ns#"
   xmlns:rdf="http://www.w3.org/1999/02/22-rdf-syntax-ns#"
   xmlns:svg="http://www.w3.org/2000/svg"
   xmlns="http://www.w3.org/2000/svg"
   xmlns:sodipodi="http://sodipodi.sourceforge.net/DTD/sodipodi-0.dtd"
   xmlns:inkscape="http://www.inkscape.org/namespaces/inkscape"
   inkscape:version="1.0beta1 (32d4812, 2019-09-19)"
   sodipodi:docname="logo-paths.svg"
   id="svg68"
   version="1.1"
   viewBox="0 0 200 64"
   height="64px"
   width="200px">
  <metadata
     id="metadata74">
    <rdf:RDF>
      <cc:Work
         rdf:about="">
        <dc:format>image/svg+xml</dc:format>
        <dc:type
           rdf:resource="http://purl.org/dc/dcmitype/StillImage" />
        <dc:title></dc:title>
      </cc:Work>
    </rdf:RDF>
  </metadata>
  <defs
     id="defs72" />
  <sodipodi:namedview
     inkscape:current-layer="svg68"
     inkscape:window-maximized="0"
     inkscape:window-y="23"
     inkscape:window-x="0"
     inkscape:cy="560"
     inkscape:cx="400"
     inkscape:zoom="0.35"
     showgrid="false"
     id="namedview70"
     inkscape:window-height="1209"
     inkscape:window-width="1600"
     inkscape:pageshadow="2"
     inkscape:pageopacity="0"
     guidetolerance="10"
     gridtolerance="10"
     objecttolerance="10"
     borderopacity="0"
     inkscape:document-rotation="0"
     bordercolor="#666666"
     pagecolor="#ffffff" />
  <g
     font-weight="normal"
     fill-rule="evenodd"
     fill="none"
     stroke-width="0.8"
     stroke="none"
     id="Page-1">
    <g
       stroke="#000000"
       fill="#000000"
       id="Custom-Preset-Copy">
      <g aria-label="Jochen Bieler">
        <path
           id="path76"
           style=""
           d="m 20.155081,61.354503 q -1.685647,0 -2.720022,-1.225925 -1.264235,-1.494096 -1.264235,-4.099187 V 55.79953 q -0.03831,-3.716086 2.758332,-8.466546 2.796641,-4.71215 9.041198,-8.964578 0.383101,-0.15324 0.574652,-0.15324 0.229861,0 0.306481,0.11493 0.114931,0.114931 0.114931,0.229861 0,0.191551 -0.114931,0.344792 -0.11493,0.15324 -0.306481,0.19155 -6.091316,4.137498 -8.887957,8.619787 -2.796642,4.482289 -2.796642,8.083444 v 0.229861 q 0,2.41354 1.149305,3.754396 0.804513,0.996064 2.145369,0.996064 0.421412,0 0.881134,-0.114931 2.145369,-0.574652 4.405668,-3.103123 2.2603,-2.52847 4.099187,-5.899765 3.256364,-6.014695 4.75046,-12.450802 2.068749,-8.389926 2.068749,-16.933092 l -0.03831,-1.723957 Q 36.360279,14.884277 34.13829,9.5208546 33.027295,6.6859026 30.613755,4.4639132 27.548942,1.5906511 22.951723,1.5140308 q -3.677776,0 -6.895829,1.5707166 Q 11.765155,5.115186 8.815273,8.3715497 3.7583316,13.811593 2.0343744,20.554181 q -0.4980321,1.800578 -0.4980321,3.716086 0,0.651273 0.07662,1.340855 0.03831,0.459722 0.1915508,0.881134 0.1915508,0.383102 0.7278931,0.612963 0.1532406,0.07662 0.1532406,0.191551 v 0.07662 q -0.07662,0.153241 -0.3064813,0.153241 H 2.2642353 Q 1.6129626,27.37339 1.3447915,26.798737 0.84675935,25.802673 0.84675935,24.729989 v -0.229861 q 0,-3.294674 1.26423535,-6.436107 2.2986097,-6.474418 7.6620323,-11.4547387 3.754396,-3.5245349 9.079508,-4.9420109 2.068749,-0.5363422 4.022567,-0.5363422 3.409605,0 6.512728,1.7622674 2.45185,1.4557862 3.945946,3.6394654 2.2603,3.2563637 3.179744,6.895829 1.225925,4.558909 1.264235,9.156129 v 0.383101 q 0,5.593284 -0.919444,11.109947 -0.919444,5.516663 -2.873262,10.880086 -1.225925,3.486225 -3.218053,7.08738 -1.953819,3.639465 -4.75046,6.359487 -1.915509,2.030438 -4.788771,2.834952 -0.574652,0.11493 -1.072684,0.11493 z" />
        <path
           id="path78"
           style=""
           d="m 44.38626,39.670952 q 0.229861,-0.536343 0.268171,-1.110995 v -0.383102 q 0,-0.459722 -0.191551,-0.919443 -0.11493,-0.306482 -0.498032,-0.306482 -0.15324,0 -0.229861,0.114931 -0.07662,0.07662 -0.11493,0.191551 -0.114931,0.229861 -0.114931,0.536342 0,0.498032 0.229861,1.034374 0.229861,0.536342 0.651273,0.842824 z m -1.379166,2.183679 q 0.153241,0 0.383102,-0.153241 0.536342,-0.459722 0.766203,-1.110994 v -0.114931 q 0,-0.153241 -0.11493,-0.268171 -0.536343,-0.421412 -0.804514,-1.110995 -0.07662,-0.15324 -0.15324,-0.306481 -0.306482,0.383102 -0.459722,0.919444 -0.153241,0.498032 -0.153241,0.996064 0,0.536342 0.191551,0.881134 0.11493,0.268171 0.344791,0.268171 z m -0.11493,0.727893 q -0.536343,0 -0.842824,-0.459722 -0.306481,-0.459722 -0.383101,-0.996064 l -0.07662,-0.651273 q 0,-1.072684 0.612963,-2.107059 0,-0.07662 0.07662,-0.15324 0.07662,-0.114931 0.153241,-0.191551 0.07662,-0.07662 0.11493,-0.07662 0.344792,-0.11493 0.459722,-0.268171 0.114931,-0.15324 0.153241,-0.421411 0,0 0,-0.03831 0.03831,-0.268171 0.191551,-0.459722 0.19155,-0.19155 0.574652,-0.229861 h 0.153241 q 0.498032,0 0.804513,0.574653 0.268171,0.651273 0.268171,1.302545 v 0.229861 q -0.03831,0.153241 -0.03831,0.268172 0,0.459721 -0.11493,0.842823 l -0.03831,0.191551 q 0,0.191551 0.153241,0.306481 0.153241,0.07662 0.459722,0.153241 0.612963,0.191551 1.187615,0.191551 1.110995,0 2.030439,-0.574653 0.919443,-0.574652 1.800577,-1.379166 0.07662,-0.03831 0.153241,-0.03831 0.03831,0 0.07662,0.03831 0.03831,0 0.03831,0.03831 0,0.03831 -0.07662,0.15324 -0.881134,0.842824 -1.992128,1.532407 -1.072685,0.651272 -2.33692,0.651272 -0.498032,0 -1.034375,-0.15324 -0.268171,-0.07662 -0.421411,-0.07662 -0.344792,0 -0.498033,0.421412 -0.19155,0.612963 -0.766203,1.034375 -0.459722,0.344791 -0.842823,0.344791 z" />
        <path
           id="path80"
           style=""
           d="m 66.90126,44.957754 -0.306482,-0.03831 Q 66.135057,44.804513 65.981816,44.421412 65.828575,44.07662 65.828575,43.731829 l -0.03831,-0.957754 q 0,-0.804514 0.07662,-1.570717 0.459722,-3.294674 1.110995,-6.589348 0.766203,-3.945946 1.149305,-7.393861 -1.187615,1.877198 -3.256364,4.942011 -2.068749,3.064813 -3.371294,4.865391 -1.838888,2.681711 -4.099187,5.056941 -0.842824,0.881134 -1.915508,1.532406 -1.034375,0.536343 -1.953819,0.536343 -0.996064,0 -1.762267,-0.536343 -0.727893,-0.574652 -0.957754,-1.609026 -0.153241,-0.689583 -0.153241,-1.417476 0,-1.877198 1.110995,-3.677776 0.229861,-0.306481 0.498032,-0.536342 0.383102,-0.421412 0.919444,-0.421412 l 0.421412,0.07662 q 0.727893,0.306482 0.804513,0.996065 0,0.11493 -0.03831,0.229861 -0.03831,0.11493 -0.191551,0.19155 l -0.11493,0.03831 q -0.114931,0 -0.191551,-0.03831 -0.07662,-0.07662 -0.153241,-0.15324 -0.07662,-0.07662 -0.11493,-0.153241 -0.03831,-0.07662 -0.114931,-0.153241 -0.07662,-0.07662 -0.268171,-0.11493 -0.574652,0.383102 -0.766203,1.034374 -0.612963,1.379166 -0.612963,2.911573 v 0.498032 q 0.03831,0.612962 0.383102,1.110994 0.498032,0.766204 1.455786,0.766204 l 0.498032,-0.03831 q 0.881134,-0.268171 1.609027,-0.727893 1.379166,-0.957754 2.45185,-2.221989 3.064813,-3.486225 5.478353,-7.317241 0.114931,-0.153241 0.229861,-0.306481 0.536343,-0.804514 1.072685,-1.609027 1.532406,-2.29861 2.911572,-4.635529 0.536342,-0.804514 0.919444,-0.804514 0.383102,0 0.421412,0.689583 l -0.03831,0.344791 q -0.153241,1.417476 -0.383102,2.796642 -0.11493,0.612963 -0.191551,1.264236 -0.11493,0.651272 -0.191551,1.302545 -0.842823,5.133562 -1.264235,10.267123 -0.03831,0.536343 -0.03831,1.225926 0.306481,-0.114931 0.459722,-0.268172 0.15324,-0.15324 0.306481,-0.344791 0.03831,-0.07662 0.114931,-0.153241 0.957754,-1.187615 2.183679,-2.260299 0.536342,-0.459722 1.225925,-0.881134 0.727893,-0.421412 1.340856,-0.421412 0.881133,0 1.570716,0.957754 l 0.574653,0.919444 q 0.11493,0.191551 0.191551,0.344792 0.19155,0.306481 0.344791,0.536342 0.727893,0.957754 1.455786,0.957754 0.689583,0 1.455786,-0.881134 0.114931,-0.11493 0.229861,-0.268171 0.651273,-0.766203 1.187615,-1.417476 0.574653,-0.689583 1.149305,-1.532406 0.153241,-0.191551 0.268171,-0.191551 0.07662,0 0.114931,0.11493 0,0.114931 -0.114931,0.306482 -0.689583,1.110994 -1.379166,1.992128 -0.689583,0.881134 -1.570716,1.877198 -0.727893,0.766203 -1.570717,0.766203 -0.727893,0 -1.455786,-0.536342 -0.689583,-0.536342 -1.072685,-1.225925 l -0.996064,-1.532407 q -0.306481,-0.459722 -0.689583,-0.459722 -0.268171,0 -0.651272,0.229861 -0.689583,0.421412 -1.264236,0.996065 -0.919444,0.919443 -1.685647,1.953818 -0.459722,0.651273 -0.957754,1.225925 -0.03831,0.03831 -0.03831,0.07662 -0.191551,0.229861 -0.421412,0.421412 -0.229861,0.229861 -0.574652,0.229861 z" />
        <path
           id="path82"
           style=""
           d="m 82.920896,38.943059 q 0.344791,-0.344792 0.574652,-0.842824 0.229861,-0.536342 0.229861,-1.072684 l -0.03831,-0.421412 q -0.459722,0.498032 -0.612962,1.187615 -0.153241,0.689583 -0.153241,1.149305 z m 0.306481,2.52847 q -0.842823,0 -1.187615,-0.651272 -0.306481,-0.651273 -0.306481,-1.455787 0,-1.187615 0.459722,-2.145369 0.191551,-0.421411 0.459722,-0.804513 0.153241,-0.229861 0.344791,-0.383102 0.229861,-0.15324 0.536343,-0.15324 h 0.15324 q 0.344792,0.07662 0.459722,0.306481 0.153241,0.229861 0.153241,0.536342 0,0.612963 -0.191551,1.264236 -0.344791,0.881133 -0.881134,1.685647 -0.15324,0.229861 -0.15324,0.383101 0,0.459722 0.689583,0.498032 h 0.07662 q 0.804513,0 1.379166,-0.498032 1.417476,-0.996064 2.834952,-2.720021 1.417476,-1.762268 2.33692,-3.103123 0.03831,-0.07662 0.11493,-0.153241 0.153241,-0.229861 0.344791,-0.421412 0.191551,-0.229861 0.574653,-0.229861 h 0.153241 q 0.651272,0.03831 0.651272,0.996065 v 0.19155 q -0.03831,0.919444 -0.15324,1.877198 -0.03831,0.459722 -0.07662,0.957754 0,0.153241 -0.03831,0.268171 -0.03831,0.306482 -0.03831,0.689583 0,0.268172 0.03831,0.574653 1.149305,-1.072685 2.2603,-1.685647 0.957754,-0.536343 1.570716,-0.536343 0.881134,0 1.455786,1.149305 0.114931,0.153241 0.191551,0.344792 0.153241,0.344791 0.383102,0.689583 0.11493,0.19155 0.229861,0.344791 0.268171,0.498032 0.612962,0.919444 0.498033,0.612963 1.187615,0.612963 0.842823,0 1.838893,-0.574653 1.03437,-0.612962 1.95381,-1.302545 0.22986,-0.114931 0.42142,-0.268171 0.19155,-0.114931 0.30648,-0.114931 0.15324,0 0.15324,0.114931 0,0.15324 -0.19155,0.306481 -0.3448,0.229861 -0.7279,0.498032 -0.95775,0.727893 -2.03044,1.340856 -1.07268,0.612962 -2.068744,0.612962 -0.689583,0 -1.264235,-0.421412 -1.225926,-0.957754 -1.838888,-2.221989 -0.498032,-1.149305 -1.110995,-1.149305 -0.498032,0 -1.455786,0.881134 -0.383102,0.344791 -0.766203,0.727893 -0.421412,0.383102 -0.804514,0.727893 -0.15324,0.191551 -0.344791,0.344791 -0.191551,0.114931 -0.459722,0.114931 l -0.268171,-0.03831 q -0.344792,-0.07662 -0.459722,-0.306481 -0.07662,-0.229861 -0.11493,-0.536343 v -0.612962 q 0,-1.225926 0.15324,-2.451851 0.03831,-0.383101 0.07662,-0.804513 l 0.03831,-0.651273 v -0.229861 q -0.114931,0.03831 -0.306482,0.229861 -0.15324,0.191551 -0.306481,0.421412 -0.07662,0.07662 -0.153241,0.153241 -0.498032,0.574652 -1.149304,1.340855 -0.957754,1.149305 -2.030439,2.29861 -1.034374,1.110995 -2.030439,1.685647 -1.034374,0.536342 -1.685647,0.536342 z" />
        <path
           id="path84"
           style=""
           d="m 126.48074,63.116771 q -0.84282,0 -1.68565,-0.114931 -2.6434,-0.383101 -4.36735,-1.992128 -1.30255,-1.264236 -1.91551,-2.796642 -0.57465,-1.494096 -0.57465,-3.141433 0,-2.720022 1.26423,-5.593284 1.26424,-2.873262 3.06481,-5.363423 1.80058,-2.49016 3.60116,-4.214117 0.3831,-0.306482 0.57465,-0.306482 0.15324,0 0.22986,0.153241 0.0766,0.114931 0.0766,0.268171 0,0.153241 -0.0766,0.306481 -0.0766,0.153241 -0.19155,0.153241 l -0.0766,-0.03831 q -1.64734,1.609027 -3.4096,4.060877 -1.72396,2.490161 -2.9882,5.325113 -1.22592,2.873262 -1.22592,5.554973 0,1.532406 0.49803,2.873262 0.49803,1.340856 1.64734,2.45185 1.5324,1.455787 3.94595,1.762268 0.88113,0.11493 1.72395,0.11493 3.86933,0 7.20231,-1.953818 3.3713,-1.953818 6.0147,-4.903701 2.68171,-2.949882 4.5206,-6.129625 1.8772,-3.179744 2.72002,-5.708214 0.7662,-2.18368 1.07268,-4.443979 0.22986,-1.225925 0.22986,-2.451851 0,-1.609026 -0.45972,-3.256363 -1.57071,-5.325113 -7.73865,-7.240621 -3.44791,-1.072684 -7.164,-1.034374 h -0.45972 q -3.10313,0 -6.16794,0.383101 -0.42141,0.03831 -0.84282,0.07662 -0.57465,0.07662 -1.14931,0.07662 -0.26817,-0.03831 -0.49803,-0.07662 -0.19155,-0.07662 -0.30648,-0.306482 -0.0383,-0.11493 -0.0383,-0.229861 0,-0.306481 0.30648,-0.536342 0.61296,-0.498032 1.22593,-0.842823 1.95381,-1.110995 3.94594,-2.145369 4.71215,-2.37523 8.69641,-5.478354 3.29467,-2.56678 5.55497,-5.784834 0.61297,-0.8811336 0.95776,-1.8005775 0.15324,-0.3831016 0.19155,-0.7278931 l 0.0383,-0.2298609 q 0,-0.689583 -0.88114,-0.689583 h -0.22986 q -0.68958,0.07662 -1.37916,0.2681712 -1.99213,0.6512727 -3.7544,1.6856471 -12.22094,6.9724492 -17.69929,18.5038082 -1.57072,3.371294 -2.37523,6.972449 -0.19155,0.996064 -0.22986,2.030439 -0.0766,0.804513 -0.65128,0.804513 -0.53634,0 -0.61296,-0.651273 v -0.19155 q 0.26817,-2.566781 0.30648,-5.171872 0.0383,-1.723957 0.11493,-3.409605 0.22986,-2.643401 0.57465,-5.248492 0.15325,-0.574652 0.30649,-1.072684 0.11493,-0.306482 0.45972,-0.306482 0.3831,0.03831 0.45972,0.344792 l 0.0766,0.421412 -0.3831,3.332984 q -0.22986,1.992128 -0.3831,4.022567 V 29.672 q 0,0.07662 0.0383,0.19155 0.15324,-0.07662 0.19155,-0.19155 0.0766,-0.114931 0.11493,-0.229861 0.0383,-0.07662 0.0383,-0.114931 2.45185,-6.129626 6.97245,-11.301498 5.21018,-5.938075 12.64235,-9.7690908 1.64734,-0.8811337 3.52454,-1.4557861 0.88113,-0.3064813 1.80057,-0.3064813 1.64734,0.07662 1.64734,1.2642353 l -0.0383,0.1532407 q 0,0.6129626 -0.30648,1.2642353 -0.7662,1.7622679 -2.10706,3.2563639 -3.83102,4.443979 -9.00289,7.738652 -3.14143,2.068749 -6.62766,3.792706 -1.11099,0.498033 -2.22199,1.187615 0.30649,0.114931 0.57466,0.114931 h 0.3831 q 0.68958,-0.03831 1.34085,-0.07662 1.34086,-0.114931 2.68172,-0.153241 h 1.41747 q 2.10706,0 4.17581,0.191551 2.10706,0.191551 4.09919,0.766203 1.99213,0.536342 3.71608,1.455786 5.05694,2.796642 5.86146,7.776963 0.22986,1.264235 0.22986,2.49016 0,3.179744 -1.14931,6.321177 -0.91944,2.720022 -2.98819,5.976385 -2.03044,3.256364 -4.94201,6.206247 -2.91157,2.988192 -6.43611,4.94201 -3.52453,1.953819 -7.31724,1.953819 z" />
        <path
           id="path86"
           style=""
           d="m 156.11306,42.199422 h -0.26817 q -1.18761,0 -1.68565,-0.919443 -0.26817,-0.536343 -0.26817,-1.072685 0,-0.804513 0.42141,-1.570717 0.0383,-0.03831 0.0383,-0.07662 0.0766,-0.229861 0.22987,-0.383102 0.22986,-0.306481 0.53634,-0.306481 0.15324,0 0.30648,0.07662 0.22986,0.114931 0.22986,0.344792 0,0.153241 -0.0766,0.306481 -0.26817,0.689583 -0.3831,1.340856 l -0.0766,0.574652 0.0383,0.383102 q 0.11493,0.651273 0.95775,0.689583 0.61296,0 1.14931,-0.229861 2.98819,-1.072685 5.59328,-2.681711 l 0.19155,-0.07662 q 0.11493,0 0.15324,0.114931 0,0.07662 -0.15324,0.191551 l -1.07268,0.651272 q -2.29861,1.340856 -4.86539,2.37523 -0.45973,0.191551 -0.99607,0.268171 z m -0.45972,-5.823144 h -0.0766 q -0.34479,0 -0.34479,-0.498032 0.0766,-0.804514 0.42141,-1.149305 0.19155,-0.229861 0.42141,-0.229861 l 0.26817,0.07662 q 0.15324,0.114931 0.15324,0.306482 0,0.11493 -0.0766,0.268171 -0.11493,0.19155 -0.19155,0.268171 -0.0766,0.11493 -0.15324,0.229861 -0.0766,0.11493 -0.11493,0.383101 -0.0383,0.153241 -0.0766,0.268172 -0.0383,0.07662 -0.22986,0.07662 z" />
        <path
           id="path88"
           style=""
           d="m 164.33477,39.785882 q 0.30649,-0.306481 0.45973,-0.766203 0.15324,-0.498032 0.15324,-0.957754 0,-0.229861 -0.0383,-0.421412 -0.30648,0.421412 -0.45973,1.072685 -0.11493,0.612962 -0.11493,1.072684 z m 12.98715,10.343744 q -0.3831,0 -0.65127,-0.306481 -0.38311,-0.536343 -0.42142,-1.149305 -0.0383,-0.07662 -0.0383,-0.153241 -0.22986,-1.455786 -0.22986,-3.294674 0,-4.367358 0.84283,-9.50092 0.84282,-5.171872 1.5324,-8.160064 -0.45972,0.574652 -0.84282,1.187615 -1.80058,2.796641 -4.55891,6.512727 -2.75833,3.677776 -5.51666,5.861455 -0.76621,0.651273 -1.91551,0.996064 -0.30648,0.07662 -0.65127,0.07662 -1.18762,0 -1.60903,-1.187615 -0.15324,-0.612962 -0.15324,-1.187615 0,-1.340855 0.72789,-2.49016 0.15324,-0.229861 0.34479,-0.421412 0.22986,-0.191551 0.57466,-0.191551 0.53634,0.07662 0.68958,0.306482 0.19155,0.229861 0.22986,0.651272 l 0.0383,0.344792 q 0,1.072684 -0.68958,1.992128 -0.19155,0.191551 -0.22986,0.268171 -0.0766,0.03831 -0.11493,0.07662 0,0.03831 -0.0383,0.11493 -0.0383,0.07662 -0.0766,0.268171 0,0.229861 0.11493,0.421412 0.15324,0.153241 0.3831,0.153241 0.57465,0 0.99606,-0.229861 2.68171,-1.340856 5.78484,-5.363423 3.10312,-4.022567 5.32511,-7.432171 0.72789,-1.072685 1.22592,-1.800578 0.22986,-0.421412 0.53635,-0.727893 0.22986,-0.229861 0.45972,-0.229861 0.30648,0 0.49803,0.383102 0.11493,0.344791 0.11493,0.689583 0,0.268171 -0.0383,0.498032 -0.72789,2.720021 -1.76227,8.313305 -0.99606,5.593283 -0.99606,10.343743 v 0.536343 q 0,2.41354 0.72789,3.141433 l 0.0383,0.191551 q 0,0.268171 -0.3831,0.459722 z" />
        <path
           id="path90"
           style=""
           d="m 182.75059,39.17292 q 0.22986,-0.191551 0.45972,-0.651273 0.22987,-0.498032 0.22987,-0.804514 l -0.0383,-0.19155 q -0.15324,0.19155 -0.42141,0.689583 -0.22986,0.459722 -0.22986,0.842823 z m 10.11388,8.121754 q -0.65127,0 -1.22592,-0.651273 -0.84282,-1.264235 -0.84282,-2.681711 v -0.766203 q 0,-2.796642 0.80451,-5.516664 0.49803,-1.915508 0.72789,-3.907636 l 0.0383,-0.536342 q 0,-0.804514 -0.65127,-1.417476 l -0.15324,-0.07662 q -0.0766,0 -0.15324,0.114931 -0.0383,0.07662 -0.0766,0.191551 -0.0383,0.07662 -0.0383,0.15324 -0.0383,0.03831 -0.0383,0.07662 -0.65127,1.685647 -1.72396,3.179743 -1.4941,2.37523 -3.48622,4.443979 -0.80452,0.881133 -1.99213,1.494096 -0.57465,0.229861 -1.03438,0.229861 -1.1493,0 -1.26423,-1.379166 v -0.229861 q 0,-1.455786 1.07268,-2.681711 0.11493,-0.153241 0.26817,-0.268171 0.15324,-0.153241 0.3448,-0.153241 l 0.19155,0.03831 q 0.3831,0.229861 0.3831,0.574653 l -0.0383,0.19155 q -0.19155,1.034375 -0.88114,1.877198 -0.22986,0.229861 -0.3831,0.498033 l -0.0383,0.22986 q 0,0.229861 0.15324,0.383102 0.22986,0.191551 0.53634,0.191551 0.7279,0 1.76227,-0.842824 3.29468,-2.873262 5.21018,-6.551037 0.68959,-0.881134 0.68959,-1.877198 0,-0.498032 -0.26817,-0.996064 -0.0383,-0.07662 -0.0383,-0.191551 0,-0.114931 0.0766,-0.191551 0.0766,-0.11493 0.26817,-0.153241 0.42141,0 0.42141,0.383102 0.0383,0.268171 0.19155,0.459722 0.19155,0.191551 0.3831,0.344791 1.03438,0.957754 1.03438,2.18368 l 0.0383,0.498032 q 0,1.340855 -0.38311,2.681711 -0.30648,1.455786 -0.57465,2.911572 -0.22986,1.455786 -0.22986,2.949883 v 0.498032 q 0,1.379166 0.42141,2.681711 0.34479,0.766203 0.88114,0.766203 0.61296,0 1.68564,-0.842823 2.22199,-1.877198 5.40174,-6.97245 0.11493,-0.11493 0.22986,-0.11493 0.0766,0 0.11493,0.03831 0.0766,0.03831 0.0766,0.114931 l -0.0383,0.11493 q -3.25637,5.286802 -5.51667,7.240621 -0.45972,0.459722 -1.11099,0.842823 -0.61296,0.421412 -1.22593,0.421412 z" />
      </g>
    </g>
  </g>
  <g
     font-weight="normal"
     fill-rule="evenodd"
     fill="none"
     stroke-width="0.3"
     stroke="none"
     id="Page-1">
    <g
       stroke="#000000"
       fill="#000000"
       id="Custom-Preset-Copy">
      <g aria-label="FOTOGRAFIE">
        <path
           id="path93"
           style=""
           d="m 40.088,53 v -2.408 h 2.352 v -0.376 h -2.352 v -2.048 h 3.008 V 47.8 H 39.728 V 53 Z" />
        <path
           id="path95"
           style=""
           d="m 48.547625,53.056 q 0.712,0 1.32,-0.352 0.608,-0.36 0.96,-0.968 0.352,-0.616 0.352,-1.336 0,-0.72 -0.352,-1.328 -0.352,-0.616 -0.96,-0.968 -0.608,-0.36 -1.32,-0.36 -0.712,0 -1.32,0.36 -0.608,0.352 -0.96,0.968 -0.352,0.608 -0.352,1.328 0,0.72 0.352,1.336 0.352,0.608 0.96,0.968 0.608,0.352 1.32,0.352 z m 0,-4.944 q 0.616,0 1.136,0.312 0.52,0.304 0.824,0.832 0.304,0.52 0.304,1.144 0,0.624 -0.304,1.152 -0.304,0.52 -0.824,0.832 -0.52,0.304 -1.136,0.304 -0.616,0 -1.136,-0.304 -0.52,-0.312 -0.832,-0.832 -0.304,-0.528 -0.304,-1.152 0,-0.624 0.304,-1.144 0.312,-0.528 0.832,-0.832 0.52,-0.312 1.136,-0.312 z" />
        <path
           id="path97"
           style=""
           d="m 58.216875,47.8 v 0.368 h -2.056 V 53 h -0.368 v -4.832 h -2.064 V 47.8 Z" />
        <path
           id="path99"
           style=""
           d="m 63.453875,53.056 q 0.712,0 1.32,-0.352 0.608,-0.36 0.96,-0.968 0.352,-0.616 0.352,-1.336 0,-0.72 -0.352,-1.328 -0.352,-0.616 -0.96,-0.968 -0.608,-0.36 -1.32,-0.36 -0.712,0 -1.32,0.36 -0.608,0.352 -0.96,0.968 -0.352,0.608 -0.352,1.328 0,0.72 0.352,1.336 0.352,0.608 0.96,0.968 0.608,0.352 1.32,0.352 z m 0,-4.944 q 0.616,0 1.136,0.312 0.52,0.304 0.824,0.832 0.304,0.52 0.304,1.144 0,0.624 -0.304,1.152 -0.304,0.52 -0.824,0.832 -0.52,0.304 -1.136,0.304 -0.616,0 -1.136,-0.304 -0.52,-0.312 -0.832,-0.832 -0.304,-0.528 -0.304,-1.152 0,-0.624 0.304,-1.144 0.312,-0.528 0.832,-0.832 0.52,-0.312 1.136,-0.312 z" />
        <path
           id="path101"
           style=""
           d="m 73.513375,50.416 h -2.088 v 0.36 h 1.712 v 1.864 h -1.504 q -0.608,0 -1.128,-0.304 -0.52,-0.312 -0.824,-0.832 -0.304,-0.52 -0.304,-1.136 0,-0.616 0.304,-1.128 0.304,-0.52 0.824,-0.824 0.52,-0.304 1.128,-0.304 0.464,0 0.896,0.192 0.432,0.184 0.752,0.528 l 0.264,-0.248 q -0.368,-0.4 -0.872,-0.624 -0.496,-0.224 -1.04,-0.224 -0.712,0 -1.312,0.36 -0.6,0.352 -0.952,0.96 -0.352,0.6 -0.352,1.312 0,0.72 0.352,1.328 0.352,0.6 0.952,0.952 0.6,0.352 1.312,0.352 h 1.88 z" />
        <path
           id="path103"
           style=""
           d="m 80.128125,53 -2.16,-2.624 h 0.64 q 0.592,0 0.96,-0.152 0.272,-0.128 0.472,-0.384 0.2,-0.264 0.2,-0.576 0,-0.28 -0.168,-0.528 -0.168,-0.256 -0.48,-0.416 -0.312,-0.16 -0.72,-0.16 h -1.456 V 53 h -0.36 v -5.2 h 1.816 q 0.368,0 0.688,0.12 0.32,0.112 0.56,0.328 0.232,0.208 0.352,0.472 0.128,0.264 0.128,0.544 0,0.44 -0.264,0.792 -0.264,0.344 -0.624,0.496 -0.248,0.112 -0.488,0.144 -0.232,0.024 -0.496,0.024 l 1.88,2.28 z" />
        <path
           id="path105"
           style=""
           d="M 84.6035,51.68 83.9875,53 h -0.4 l 2.448,-5.264 2.312,5.264 h -0.392 l -0.584,-1.32 z m 1.416,-3.056 -1.248,2.696 h 2.44 z" />
        <path
           id="path107"
           style=""
           d="m 91.838,53 v -2.408 h 2.352 v -0.376 h -2.352 v -2.048 h 3.008 V 47.8 H 91.478 V 53 Z" />
        <path
           id="path109"
           style=""
           d="m 98.637125,53 v -5.2 h -0.36 V 53 Z" />
        <path
           id="path111"
           style=""
           d="m 105.64288,53 v -0.376 h -3.00801 v -2.04 h 2.34401 v -0.368 h -2.34401 v -2.048 h 3.00801 V 47.8 h -3.36801 V 53 Z" />
      </g>
    </g>
  </g>
</svg>
