<svg xmlns="http://www.w3.org/2000/svg" version="1.1" xmlns:xlink="http://www.w3.org/1999/xlink" xmlns:svgjs="http://svgjs.com/svgjs" width="288" height="288"><svg id="SvgjsSvg1002" width="288" height="288" xmlns="http://www.w3.org/2000/svg" version="1.1" xmlns:xlink="http://www.w3.org/1999/xlink" xmlns:svgjs="http://svgjs.com/svgjs"><defs id="SvgjsDefs1001"></defs><g id="SvgjsG1000"><svg xmlns="http://www.w3.org/2000/svg" width="288" height="288" viewBox="0 0 24 24"><path fill="none" d="M0 0h24v24H0z"></path><path d="M21 6h-2V5H5v14h14v-1h2v2a1 1 0 0 1-1 1H4a1 1 0 0 1-1-1V4a1 1 0 0 1 1-1h16a1 1 0 0 1 1 1v2zM6 6h2v3H6V6zm9 10a4 4 0 1 0 0-8 4 4 0 0 0 0 8zm0 2a6 6 0 1 1 0-12 6 6 0 0 1 0 12zm0-4a2 2 0 1 1 0-4 2 2 0 0 1 0 4z" fill="#b2944d" class="color000 svgShape"></path></svg></g></svg><style>@media (prefers-color-scheme: light) { :root { filter: none; } }
</style></svg>